<svg xmlns="http://www.w3.org/2000/svg" width="1400" height="800"><path d="M689,466L558,563L686,560Z" fill="rgb(254,172,252)" stroke="rgb(254,172,252)" stroke-width="1.51"/><path d="M689,466L562,445L558,563Z" fill="rgb(248,151,250)" stroke="rgb(248,151,250)" stroke-width="1.51"/><path d="M558,563L545,666L686,560Z" fill="rgb(245,172,251)" stroke="rgb(245,172,251)" stroke-width="1.51"/><path d="M427,606L545,666L558,563Z" fill="rgb(238,181,248)" stroke="rgb(238,181,248)" stroke-width="1.51"/><path d="M562,445L445,476L558,563Z" fill="rgb(244,166,248)" stroke="rgb(244,166,248)" stroke-width="1.51"/><path d="M562,445L474,374L445,476Z" fill="rgb(241,124,245)" stroke="rgb(241,124,245)" stroke-width="1.51"/><path d="M609,304L474,374L562,445Z" fill="rgb(238,95,245)" stroke="rgb(238,95,245)" stroke-width="1.51"/><path d="M689,466L609,304L562,445Z" fill="rgb(244,73,248)" stroke="rgb(244,73,248)" stroke-width="1.51"/><path d="M692,317L609,304L689,466Z" fill="rgb(242,73,247)" stroke="rgb(242,73,247)" stroke-width="1.51"/><path d="M445,476L427,606L558,563Z" fill="rgb(241,195,248)" stroke="rgb(241,195,248)" stroke-width="1.51"/><path d="M427,606L492,686L545,666Z" fill="rgb(232,178,248)" stroke="rgb(232,178,248)" stroke-width="1.51"/><path d="M686,560L841,461L689,466Z" fill="rgb(255,155,253)" stroke="rgb(255,155,253)" stroke-width="1.51"/><path d="M689,466L841,461L692,317Z" fill="rgb(251,89,251)" stroke="rgb(251,89,251)" stroke-width="1.51"/><path d="M784,681L824,594L686,560Z" fill="rgb(250,180,254)" stroke="rgb(250,180,254)" stroke-width="1.51"/><path d="M666,732L686,560L545,666Z" fill="rgb(241,157,251)" stroke="rgb(241,157,251)" stroke-width="1.51"/><path d="M548,793L666,732L545,666Z" fill="rgb(203,155,241)" stroke="rgb(203,155,241)" stroke-width="1.51"/><path d="M824,594L841,461L686,560Z" fill="rgb(255,198,254)" stroke="rgb(255,198,254)" stroke-width="1.51"/><path d="M666,732L784,681L686,560Z" fill="rgb(245,152,253)" stroke="rgb(245,152,253)" stroke-width="1.51"/><path d="M445,476L372,586L427,606Z" fill="rgb(229,190,248)" stroke="rgb(229,190,248)" stroke-width="1.51"/><path d="M427,606L343,685L492,686Z" fill="rgb(219,175,247)" stroke="rgb(219,175,247)" stroke-width="1.51"/><path d="M329,475L372,586L445,476Z" fill="rgb(222,177,248)" stroke="rgb(222,177,248)" stroke-width="1.51"/><path d="M609,304L492,247L474,374Z" fill="rgb(232,121,242)" stroke="rgb(232,121,242)" stroke-width="1.51"/><path d="M692,317L594,239L609,304Z" fill="rgb(235,108,244)" stroke="rgb(235,108,244)" stroke-width="1.51"/><path d="M492,686L548,793L545,666Z" fill="rgb(208,164,242)" stroke="rgb(208,164,242)" stroke-width="1.51"/><path d="M666,732L710,835L784,681Z" fill="rgb(200,145,242)" stroke="rgb(200,145,242)" stroke-width="1.51"/><path d="M431,798L548,793L492,686Z" fill="rgb(181,165,235)" stroke="rgb(181,165,235)" stroke-width="1.51"/><path d="M594,239L492,247L609,304Z" fill="rgb(229,125,241)" stroke="rgb(229,125,241)" stroke-width="1.51"/><path d="M474,374L329,475L445,476Z" fill="rgb(229,131,245)" stroke="rgb(229,131,245)" stroke-width="1.51"/><path d="M338,315L329,475L474,374Z" fill="rgb(217,99,244)" stroke="rgb(217,99,244)" stroke-width="1.51"/><path d="M692,317L732,231L594,239Z" fill="rgb(234,107,244)" stroke="rgb(234,107,244)" stroke-width="1.51"/><path d="M852,307L732,231L692,317Z" fill="rgb(241,124,246)" stroke="rgb(241,124,246)" stroke-width="1.51"/><path d="M841,461L852,307L692,317Z" fill="rgb(248,118,250)" stroke="rgb(248,118,250)" stroke-width="1.51"/><path d="M841,461L943,366L852,307Z" fill="rgb(252,150,252)" stroke="rgb(252,150,252)" stroke-width="1.51"/><path d="M952,557L924,445L841,461Z" fill="rgb(255,216,255)" stroke="rgb(255,216,255)" stroke-width="1.51"/><path d="M952,557L841,461L824,594Z" fill="rgb(255,232,255)" stroke="rgb(255,232,255)" stroke-width="1.51"/><path d="M372,586L343,685L427,606Z" fill="rgb(214,177,248)" stroke="rgb(214,177,248)" stroke-width="1.51"/><path d="M206,687L343,685L372,586Z" fill="rgb(194,165,248)" stroke="rgb(194,165,248)" stroke-width="1.51"/><path d="M950,719L952,557L824,594Z" fill="rgb(247,232,255)" stroke="rgb(247,232,255)" stroke-width="1.51"/><path d="M548,793L710,835L666,732Z" fill="rgb(176,142,235)" stroke="rgb(176,142,235)" stroke-width="1.51"/><path d="M784,681L950,719L824,594Z" fill="rgb(243,205,255)" stroke="rgb(243,205,255)" stroke-width="1.51"/><path d="M852,307L786,210L732,231Z" fill="rgb(234,140,246)" stroke="rgb(234,140,246)" stroke-width="1.51"/><path d="M730,91L580,84L594,239Z" fill="rgb(182,96,243)" stroke="rgb(182,96,243)" stroke-width="1.51"/><path d="M594,239L580,84L492,247Z" fill="rgb(199,116,242)" stroke="rgb(199,116,242)" stroke-width="1.51"/><path d="M492,247L338,315L474,374Z" fill="rgb(222,126,241)" stroke="rgb(222,126,241)" stroke-width="1.51"/><path d="M343,685L431,798L492,686Z" fill="rgb(188,167,240)" stroke="rgb(188,167,240)" stroke-width="1.51"/><path d="M549,944L696,935L710,835Z" fill="rgb(169,139,233)" stroke="rgb(169,139,233)" stroke-width="1.51"/><path d="M924,445L943,366L841,461Z" fill="rgb(255,172,254)" stroke="rgb(255,172,254)" stroke-width="1.51"/><path d="M852,307L933,252L786,210Z" fill="rgb(236,168,247)" stroke="rgb(236,168,247)" stroke-width="1.51"/><path d="M1061,428L943,366L924,445Z" fill="rgb(255,172,253)" stroke="rgb(255,172,253)" stroke-width="1.51"/><path d="M710,835L797,844L784,681Z" fill="rgb(180,158,237)" stroke="rgb(180,158,237)" stroke-width="1.51"/><path d="M444,117L347,251L492,247Z" fill="rgb(192,128,240)" stroke="rgb(192,128,240)" stroke-width="1.51"/><path d="M492,247L347,251L338,315Z" fill="rgb(209,133,240)" stroke="rgb(209,133,240)" stroke-width="1.51"/><path d="M797,844L950,719L784,681Z" fill="rgb(199,191,243)" stroke="rgb(199,191,243)" stroke-width="1.51"/><path d="M329,475L193,545L372,586Z" fill="rgb(204,182,249)" stroke="rgb(204,182,249)" stroke-width="1.51"/><path d="M338,315L250,358L329,475Z" fill="rgb(199,95,244)" stroke="rgb(199,95,244)" stroke-width="1.51"/><path d="M255,242L250,358L338,315Z" fill="rgb(186,115,241)" stroke="rgb(186,115,241)" stroke-width="1.51"/><path d="M943,366L933,252L852,307Z" fill="rgb(246,180,249)" stroke="rgb(246,180,249)" stroke-width="1.51"/><path d="M250,358L202,472L329,475Z" fill="rgb(192,113,246)" stroke="rgb(192,113,246)" stroke-width="1.51"/><path d="M730,91L594,239L732,231Z" fill="rgb(205,94,244)" stroke="rgb(205,94,244)" stroke-width="1.51"/><path d="M730,91L732,231L786,210Z" fill="rgb(204,112,245)" stroke="rgb(204,112,245)" stroke-width="1.51"/><path d="M202,472L193,545L329,475Z" fill="rgb(189,154,248)" stroke="rgb(189,154,248)" stroke-width="1.51"/><path d="M343,685L327,830L431,798Z" fill="rgb(146,157,234)" stroke="rgb(146,157,234)" stroke-width="1.51"/><path d="M710,835L696,935L797,844Z" fill="rgb(173,146,235)" stroke="rgb(173,146,235)" stroke-width="1.51"/><path d="M797,844L965,800L950,719Z" fill="rgb(173,207,239)" stroke="rgb(173,207,239)" stroke-width="1.51"/><path d="M549,944L710,835L548,793Z" fill="rgb(165,146,232)" stroke="rgb(165,146,232)" stroke-width="1.51"/><path d="M580,84L444,117L492,247Z" fill="rgb(180,117,241)" stroke="rgb(180,117,241)" stroke-width="1.51"/><path d="M347,251L255,242L338,315Z" fill="rgb(191,127,240)" stroke="rgb(191,127,240)" stroke-width="1.51"/><path d="M470,948L549,944L548,793Z" fill="rgb(160,156,230)" stroke="rgb(160,156,230)" stroke-width="1.51"/><path d="M252,801L327,830L343,685Z" fill="rgb(129,151,233)" stroke="rgb(129,151,233)" stroke-width="1.51"/><path d="M851,122L730,91L786,210Z" fill="rgb(190,123,247)" stroke="rgb(190,123,247)" stroke-width="1.51"/><path d="M470,948L548,793L431,798Z" fill="rgb(156,160,229)" stroke="rgb(156,160,229)" stroke-width="1.51"/><path d="M952,557L1061,428L924,445Z" fill="rgb(254,215,255)" stroke="rgb(254,215,255)" stroke-width="1.51"/><path d="M943,366L1045,352L933,252Z" fill="rgb(247,182,250)" stroke="rgb(247,182,250)" stroke-width="1.51"/><path d="M1042,716L1063,575L952,557Z" fill="rgb(243,234,255)" stroke="rgb(243,234,255)" stroke-width="1.51"/><path d="M1063,575L1061,428L952,557Z" fill="rgb(251,239,255)" stroke="rgb(251,239,255)" stroke-width="1.51"/><path d="M950,719L1042,716L952,557Z" fill="rgb(241,231,255)" stroke="rgb(241,231,255)" stroke-width="1.51"/><path d="M840,943L965,800L797,844Z" fill="rgb(167,192,236)" stroke="rgb(167,192,236)" stroke-width="1.51"/><path d="M193,545L206,687L372,586Z" fill="rgb(187,168,249)" stroke="rgb(187,168,249)" stroke-width="1.51"/><path d="M911,83L851,122L933,252Z" fill="rgb(196,166,249)" stroke="rgb(196,166,249)" stroke-width="1.51"/><path d="M933,252L851,122L786,210Z" fill="rgb(212,158,247)" stroke="rgb(212,158,247)" stroke-width="1.51"/><path d="M1061,428L1045,352L943,366Z" fill="rgb(251,163,252)" stroke="rgb(251,163,252)" stroke-width="1.51"/><path d="M354,68L255,242L347,251Z" fill="rgb(157,116,240)" stroke="rgb(157,116,240)" stroke-width="1.51"/><path d="M126,317L102,446L202,472Z" fill="rgb(190,95,245)" stroke="rgb(190,95,245)" stroke-width="1.51"/><path d="M327,830L470,948L431,798Z" fill="rgb(139,157,229)" stroke="rgb(139,157,229)" stroke-width="1.51"/><path d="M965,800L1042,716L950,719Z" fill="rgb(196,219,245)" stroke="rgb(196,219,245)" stroke-width="1.51"/><path d="M327,830L317,960L470,948Z" fill="rgb(129,153,230)" stroke="rgb(129,153,230)" stroke-width="1.51"/><path d="M206,687L252,801L343,685Z" fill="rgb(148,153,240)" stroke="rgb(148,153,240)" stroke-width="1.51"/><path d="M696,935L840,943L797,844Z" fill="rgb(172,161,235)" stroke="rgb(172,161,235)" stroke-width="1.51"/><path d="M965,800L1040,845L1042,716Z" fill="rgb(169,209,239)" stroke="rgb(169,209,239)" stroke-width="1.51"/><path d="M929,961L840,943L696,935Z" fill="rgb(170,176,236)" stroke="rgb(170,176,236)" stroke-width="1.51"/><path d="M929,961L696,935L549,944Z" fill="rgb(172,142,234)" stroke="rgb(172,142,234)" stroke-width="1.51"/><path d="M719,2L581,2L580,84Z" fill="rgb(191,99,243)" stroke="rgb(191,99,243)" stroke-width="1.51"/><path d="M580,84L491,-7L444,117Z" fill="rgb(181,117,241)" stroke="rgb(181,117,241)" stroke-width="1.51"/><path d="M444,117L354,68L347,251Z" fill="rgb(154,115,240)" stroke="rgb(154,115,240)" stroke-width="1.51"/><path d="M719,2L580,84L730,91Z" fill="rgb(190,90,244)" stroke="rgb(190,90,244)" stroke-width="1.51"/><path d="M206,687L107,716L252,801Z" fill="rgb(135,149,239)" stroke="rgb(135,149,239)" stroke-width="1.51"/><path d="M193,545L112,575L206,687Z" fill="rgb(185,167,249)" stroke="rgb(185,167,249)" stroke-width="1.51"/><path d="M102,446L112,575L193,545Z" fill="rgb(194,171,249)" stroke="rgb(194,171,249)" stroke-width="1.51"/><path d="M102,446L193,545L202,472Z" fill="rgb(191,148,248)" stroke="rgb(191,148,248)" stroke-width="1.51"/><path d="M828,-43L719,2L730,91Z" fill="rgb(199,113,246)" stroke="rgb(199,113,246)" stroke-width="1.51"/><path d="M1068,192L911,83L933,252Z" fill="rgb(204,180,249)" stroke="rgb(204,180,249)" stroke-width="1.51"/><path d="M491,-7L354,68L444,117Z" fill="rgb(170,120,240)" stroke="rgb(170,120,240)" stroke-width="1.51"/><path d="M828,-43L730,91L851,122Z" fill="rgb(195,130,247)" stroke="rgb(195,130,247)" stroke-width="1.51"/><path d="M126,317L202,472L250,358Z" fill="rgb(184,90,244)" stroke="rgb(184,90,244)" stroke-width="1.51"/><path d="M126,317L250,358L255,242Z" fill="rgb(176,112,241)" stroke="rgb(176,112,241)" stroke-width="1.51"/><path d="M85,246L126,317L255,242Z" fill="rgb(176,121,240)" stroke="rgb(176,121,240)" stroke-width="1.51"/><path d="M487,-132L491,-7L581,2Z" fill="rgb(189,117,241)" stroke="rgb(189,117,241)" stroke-width="1.51"/><path d="M581,2L491,-7L580,84Z" fill="rgb(188,112,242)" stroke="rgb(188,112,242)" stroke-width="1.51"/><path d="M929,961L1040,845L965,800Z" fill="rgb(163,211,237)" stroke="rgb(163,211,237)" stroke-width="1.51"/><path d="M1181,574L1061,428L1063,575Z" fill="rgb(247,235,255)" stroke="rgb(247,235,255)" stroke-width="1.51"/><path d="M242,963L317,960L327,830Z" fill="rgb(105,146,230)" stroke="rgb(105,146,230)" stroke-width="1.51"/><path d="M470,948L929,961L549,944Z" fill="rgb(169,140,233)" stroke="rgb(169,140,233)" stroke-width="1.51"/><path d="M242,963L327,830L252,801Z" fill="rgb(98,144,230)" stroke="rgb(98,144,230)" stroke-width="1.51"/><path d="M840,943L929,961L965,800Z" fill="rgb(165,207,237)" stroke="rgb(165,207,237)" stroke-width="1.51"/><path d="M317,960L929,961L470,948Z" fill="rgb(164,150,231)" stroke="rgb(164,150,231)" stroke-width="1.51"/><path d="M1045,352L1068,192L933,252Z" fill="rgb(237,192,247)" stroke="rgb(237,192,247)" stroke-width="1.51"/><path d="M1061,428L1151,368L1045,352Z" fill="rgb(247,157,252)" stroke="rgb(247,157,252)" stroke-width="1.51"/><path d="M1201,440L1151,368L1061,428Z" fill="rgb(246,157,253)" stroke="rgb(246,157,253)" stroke-width="1.51"/><path d="M1181,574L1063,575L1192,720Z" fill="rgb(236,222,255)" stroke="rgb(236,222,255)" stroke-width="1.51"/><path d="M1192,241L1068,192L1045,352Z" fill="rgb(231,183,247)" stroke="rgb(231,183,247)" stroke-width="1.51"/><path d="M112,575L107,716L206,687Z" fill="rgb(181,159,248)" stroke="rgb(181,159,248)" stroke-width="1.51"/><path d="M6,547L107,716L112,575Z" fill="rgb(190,168,248)" stroke="rgb(190,168,248)" stroke-width="1.51"/><path d="M1192,720L1063,575L1042,716Z" fill="rgb(233,219,255)" stroke="rgb(233,219,255)" stroke-width="1.51"/><path d="M337,-33L225,92L354,68Z" fill="rgb(140,110,240)" stroke="rgb(140,110,240)" stroke-width="1.51"/><path d="M354,68L225,92L255,242Z" fill="rgb(120,105,240)" stroke="rgb(120,105,240)" stroke-width="1.51"/><path d="M1181,574L1201,440L1061,428Z" fill="rgb(245,202,255)" stroke="rgb(245,202,255)" stroke-width="1.51"/><path d="M1160,112L1066,110L1068,192Z" fill="rgb(180,163,249)" stroke="rgb(180,163,249)" stroke-width="1.51"/><path d="M317,960L242,963L929,961Z" fill="rgb(157,159,229)" stroke="rgb(157,159,229)" stroke-width="1.51"/><path d="M95,851L242,963L252,801Z" fill="rgb(86,141,230)" stroke="rgb(86,141,230)" stroke-width="1.51"/><path d="M911,83L828,-43L851,122Z" fill="rgb(196,153,248)" stroke="rgb(196,153,248)" stroke-width="1.51"/><path d="M551,-162L487,-132L581,2Z" fill="rgb(190,114,241)" stroke="rgb(190,114,241)" stroke-width="1.51"/><path d="M961,-17L828,-43L911,83Z" fill="rgb(201,169,248)" stroke="rgb(201,169,248)" stroke-width="1.51"/><path d="M96,118L85,246L255,242Z" fill="rgb(148,113,240)" stroke="rgb(148,113,240)" stroke-width="1.51"/><path d="M-56,342L-33,486L102,446Z" fill="rgb(200,107,245)" stroke="rgb(200,107,245)" stroke-width="1.51"/><path d="M102,446L6,547L112,575Z" fill="rgb(198,172,249)" stroke="rgb(198,172,249)" stroke-width="1.51"/><path d="M929,961L1035,943L1040,845Z" fill="rgb(161,209,237)" stroke="rgb(161,209,237)" stroke-width="1.51"/><path d="M1153,815L1192,720L1042,716Z" fill="rgb(185,206,243)" stroke="rgb(185,206,243)" stroke-width="1.51"/><path d="M1192,241L1045,352L1151,368Z" fill="rgb(238,169,249)" stroke="rgb(238,169,249)" stroke-width="1.51"/><path d="M1068,192L1066,110L911,83Z" fill="rgb(184,169,249)" stroke="rgb(184,169,249)" stroke-width="1.51"/><path d="M1153,815L1042,716L1040,845Z" fill="rgb(162,203,238)" stroke="rgb(162,203,238)" stroke-width="1.51"/><path d="M1181,574L1284,455L1201,440Z" fill="rgb(226,202,250)" stroke="rgb(226,202,250)" stroke-width="1.51"/><path d="M1035,943L1153,815L1040,845Z" fill="rgb(157,203,237)" stroke="rgb(157,203,237)" stroke-width="1.51"/><path d="M491,-7L337,-33L354,68Z" fill="rgb(167,118,240)" stroke="rgb(167,118,240)" stroke-width="1.51"/><path d="M225,92L96,118L255,242Z" fill="rgb(118,105,240)" stroke="rgb(118,105,240)" stroke-width="1.51"/><path d="M487,-132L337,-33L491,-7Z" fill="rgb(179,122,240)" stroke="rgb(179,122,240)" stroke-width="1.51"/><path d="M107,716L95,851L252,801Z" fill="rgb(99,143,231)" stroke="rgb(99,143,231)" stroke-width="1.51"/><path d="M-33,486L6,547L102,446Z" fill="rgb(200,154,248)" stroke="rgb(200,154,248)" stroke-width="1.51"/><path d="M1,842L95,851L107,716Z" fill="rgb(99,144,230)" stroke="rgb(99,144,230)" stroke-width="1.51"/><path d="M1066,110L961,-17L911,83Z" fill="rgb(194,175,249)" stroke="rgb(194,175,249)" stroke-width="1.51"/><path d="M1288,218L1192,241L1327,329Z" fill="rgb(196,171,239)" stroke="rgb(196,171,239)" stroke-width="1.51"/><path d="M1066,110L1074,5L961,-17Z" fill="rgb(194,171,249)" stroke="rgb(194,171,249)" stroke-width="1.51"/><path d="M1201,440L1327,329L1151,368Z" fill="rgb(223,148,247)" stroke="rgb(223,148,247)" stroke-width="1.51"/><path d="M1192,720L1269,585L1181,574Z" fill="rgb(219,216,252)" stroke="rgb(219,216,252)" stroke-width="1.51"/><path d="M1307,694L1269,585L1192,720Z" fill="rgb(202,207,248)" stroke="rgb(202,207,248)" stroke-width="1.51"/><path d="M-56,342L102,446L126,317Z" fill="rgb(192,96,243)" stroke="rgb(192,96,243)" stroke-width="1.51"/><path d="M1,842L73,915L95,851Z" fill="rgb(100,144,230)" stroke="rgb(100,144,230)" stroke-width="1.51"/><path d="M85,246L-56,342L126,317Z" fill="rgb(186,115,241)" stroke="rgb(186,115,241)" stroke-width="1.51"/><path d="M87,-42L96,118L225,92Z" fill="rgb(124,105,240)" stroke="rgb(124,105,240)" stroke-width="1.51"/><path d="M337,-33L249,-56L225,92Z" fill="rgb(135,109,240)" stroke="rgb(135,109,240)" stroke-width="1.51"/><path d="M551,-162L581,2L695,-173Z" fill="rgb(194,103,242)" stroke="rgb(194,103,242)" stroke-width="1.51"/><path d="M695,-173L719,2L828,-43Z" fill="rgb(200,109,246)" stroke="rgb(200,109,246)" stroke-width="1.51"/><path d="M1269,585L1284,455L1181,574Z" fill="rgb(218,228,249)" stroke="rgb(218,228,249)" stroke-width="1.51"/><path d="M961,-17L855,-114L828,-43Z" fill="rgb(202,162,248)" stroke="rgb(202,162,248)" stroke-width="1.51"/><path d="M1192,241L1160,112L1068,192Z" fill="rgb(197,166,248)" stroke="rgb(197,166,248)" stroke-width="1.51"/><path d="M961,-17L937,-169L855,-114Z" fill="rgb(203,175,249)" stroke="rgb(203,175,249)" stroke-width="1.51"/><path d="M1288,218L1160,112L1192,241Z" fill="rgb(183,163,244)" stroke="rgb(183,163,244)" stroke-width="1.51"/><path d="M695,-173L581,2L719,2Z" fill="rgb(196,93,244)" stroke="rgb(196,93,244)" stroke-width="1.51"/><path d="M309,-132L337,-33L487,-132Z" fill="rgb(164,117,240)" stroke="rgb(164,117,240)" stroke-width="1.51"/><path d="M309,-132L249,-56L337,-33Z" fill="rgb(143,111,240)" stroke="rgb(143,111,240)" stroke-width="1.51"/><path d="M1160,112L1074,5L1066,110Z" fill="rgb(185,164,248)" stroke="rgb(185,164,248)" stroke-width="1.51"/><path d="M95,851L73,915L242,963Z" fill="rgb(92,142,230)" stroke="rgb(92,142,230)" stroke-width="1.51"/><path d="M-51,704L107,716L6,547Z" fill="rgb(189,162,248)" stroke="rgb(189,162,248)" stroke-width="1.51"/><path d="M855,-114L695,-173L828,-43Z" fill="rgb(201,127,247)" stroke="rgb(201,127,247)" stroke-width="1.51"/><path d="M-45,248L-56,342L85,246Z" fill="rgb(187,122,240)" stroke="rgb(187,122,240)" stroke-width="1.51"/><path d="M-140,579L6,547L-33,486Z" fill="rgb(203,180,249)" stroke="rgb(203,180,249)" stroke-width="1.51"/><path d="M-140,579L-51,704L6,547Z" fill="rgb(195,169,248)" stroke="rgb(195,169,248)" stroke-width="1.51"/><path d="M-51,704L1,842L107,716Z" fill="rgb(136,150,236)" stroke="rgb(136,150,236)" stroke-width="1.51"/><path d="M1315,802L1307,694L1192,720Z" fill="rgb(153,196,237)" stroke="rgb(153,196,237)" stroke-width="1.51"/><path d="M1269,585L1412,599L1284,455Z" fill="rgb(191,220,243)" stroke="rgb(191,220,243)" stroke-width="1.51"/><path d="M1315,802L1192,720L1153,815Z" fill="rgb(146,194,236)" stroke="rgb(146,194,236)" stroke-width="1.51"/><path d="M551,-162L309,-132L487,-132Z" fill="rgb(182,123,240)" stroke="rgb(182,123,240)" stroke-width="1.51"/><path d="M-45,129L85,246L96,118Z" fill="rgb(137,109,240)" stroke="rgb(137,109,240)" stroke-width="1.51"/><path d="M87,-42L225,92L249,-56Z" fill="rgb(128,106,240)" stroke="rgb(128,106,240)" stroke-width="1.51"/><path d="M-45,129L-45,248L85,246Z" fill="rgb(161,116,240)" stroke="rgb(161,116,240)" stroke-width="1.51"/><path d="M1313,917L1209,919L1451,949Z" fill="rgb(83,182,225)" stroke="rgb(83,182,225)" stroke-width="1.51"/><path d="M1035,943L1209,919L1153,815Z" fill="rgb(154,198,237)" stroke="rgb(154,198,237)" stroke-width="1.51"/><path d="M1160,112L1191,-40L1074,5Z" fill="rgb(188,162,248)" stroke="rgb(188,162,248)" stroke-width="1.51"/><path d="M1327,329L1192,241L1151,368Z" fill="rgb(217,164,245)" stroke="rgb(217,164,245)" stroke-width="1.51"/><path d="M1327,329L1201,440L1284,455Z" fill="rgb(212,145,245)" stroke="rgb(212,145,245)" stroke-width="1.51"/><path d="M309,-132L241,-111L249,-56Z" fill="rgb(134,108,240)" stroke="rgb(134,108,240)" stroke-width="1.51"/><path d="M1387,318L1327,329L1425,459Z" fill="rgb(175,142,235)" stroke="rgb(175,142,235)" stroke-width="1.51"/><path d="M-122,323L-125,478L-56,342Z" fill="rgb(196,93,244)" stroke="rgb(196,93,244)" stroke-width="1.51"/><path d="M-56,342L-125,478L-33,486Z" fill="rgb(201,115,246)" stroke="rgb(201,115,246)" stroke-width="1.51"/><path d="M855,-114L937,-169L695,-173Z" fill="rgb(201,142,247)" stroke="rgb(201,142,247)" stroke-width="1.51"/><path d="M1045,-162L937,-169L961,-17Z" fill="rgb(200,177,249)" stroke="rgb(200,177,249)" stroke-width="1.51"/><path d="M1045,-162L961,-17L1074,5Z" fill="rgb(198,173,249)" stroke="rgb(198,173,249)" stroke-width="1.51"/><path d="M1425,459L1327,329L1284,455Z" fill="rgb(190,146,239)" stroke="rgb(190,146,239)" stroke-width="1.51"/><path d="M1209,919L1315,802L1153,815Z" fill="rgb(129,190,232)" stroke="rgb(129,190,232)" stroke-width="1.51"/><path d="M1,842L-11,928L73,915Z" fill="rgb(103,144,230)" stroke="rgb(103,144,230)" stroke-width="1.51"/><path d="M73,915L-11,928L242,963Z" fill="rgb(96,143,230)" stroke="rgb(96,143,230)" stroke-width="1.51"/><path d="M-163,824L-11,928L1,842Z" fill="rgb(105,145,230)" stroke="rgb(105,145,230)" stroke-width="1.51"/><path d="M-163,824L1,842L-51,704Z" fill="rgb(113,146,231)" stroke="rgb(113,146,231)" stroke-width="1.51"/><path d="M-125,478L-140,579L-33,486Z" fill="rgb(202,169,248)" stroke="rgb(202,169,248)" stroke-width="1.51"/><path d="M-125,478L-163,98L-140,579Z" fill="rgb(197,91,244)" stroke="rgb(197,91,244)" stroke-width="1.51"/><path d="M-45,248L-122,323L-56,342Z" fill="rgb(190,115,241)" stroke="rgb(190,115,241)" stroke-width="1.51"/><path d="M-117,188L-122,323L-45,248Z" fill="rgb(180,123,240)" stroke="rgb(180,123,240)" stroke-width="1.51"/><path d="M9,-52L-45,129L96,118Z" fill="rgb(132,107,240)" stroke="rgb(132,107,240)" stroke-width="1.51"/><path d="M241,-111L87,-42L249,-56Z" fill="rgb(127,106,240)" stroke="rgb(127,106,240)" stroke-width="1.51"/><path d="M1271,-6L1191,-40L1160,112Z" fill="rgb(174,158,245)" stroke="rgb(174,158,245)" stroke-width="1.51"/><path d="M1327,329L1387,318L1288,218Z" fill="rgb(180,162,235)" stroke="rgb(180,162,235)" stroke-width="1.51"/><path d="M1412,599L1269,585L1307,694Z" fill="rgb(181,207,243)" stroke="rgb(181,207,243)" stroke-width="1.51"/><path d="M-140,579L-140,724L-51,704Z" fill="rgb(188,160,248)" stroke="rgb(188,160,248)" stroke-width="1.51"/><path d="M1297,91L1160,112L1288,218Z" fill="rgb(149,152,242)" stroke="rgb(149,152,242)" stroke-width="1.51"/><path d="M1176,-141L1045,-162L1074,5Z" fill="rgb(193,167,248)" stroke="rgb(193,167,248)" stroke-width="1.51"/><path d="M1444,93L1297,91L1288,218Z" fill="rgb(110,144,234)" stroke="rgb(110,144,234)" stroke-width="1.51"/><path d="M1435,668L1412,599L1307,694Z" fill="rgb(159,199,238)" stroke="rgb(159,199,238)" stroke-width="1.51"/><path d="M1443,795L1435,668L1307,694Z" fill="rgb(117,188,230)" stroke="rgb(117,188,230)" stroke-width="1.51"/><path d="M1209,919L1313,917L1315,802Z" fill="rgb(106,186,228)" stroke="rgb(106,186,228)" stroke-width="1.51"/><path d="M1451,949L1209,919L1035,943Z" fill="rgb(127,190,232)" stroke="rgb(127,190,232)" stroke-width="1.51"/><path d="M-122,323L-163,98L-125,478Z" fill="rgb(189,116,241)" stroke="rgb(189,116,241)" stroke-width="1.51"/><path d="M-45,129L-117,188L-45,248Z" fill="rgb(152,113,240)" stroke="rgb(152,113,240)" stroke-width="1.51"/><path d="M-163,98L-117,188L-45,129Z" fill="rgb(127,106,240)" stroke="rgb(127,106,240)" stroke-width="1.51"/><path d="M1412,599L1425,459L1284,455Z" fill="rgb(176,200,239)" stroke="rgb(176,200,239)" stroke-width="1.51"/><path d="M1443,795L1307,694L1315,802Z" fill="rgb(100,185,227)" stroke="rgb(100,185,227)" stroke-width="1.51"/><path d="M1412,599L1510,556L1425,459Z" fill="rgb(164,214,237)" stroke="rgb(164,214,237)" stroke-width="1.51"/><path d="M1434,-52L1271,-6L1297,91Z" fill="rgb(130,149,235)" stroke="rgb(130,149,235)" stroke-width="1.51"/><path d="M1297,91L1271,-6L1160,112Z" fill="rgb(156,154,242)" stroke="rgb(156,154,242)" stroke-width="1.51"/><path d="M1191,-40L1176,-141L1074,5Z" fill="rgb(191,162,248)" stroke="rgb(191,162,248)" stroke-width="1.51"/><path d="M87,-42L9,-52L96,118Z" fill="rgb(136,108,240)" stroke="rgb(136,108,240)" stroke-width="1.51"/><path d="M88,-142L9,-52L87,-42Z" fill="rgb(138,108,240)" stroke="rgb(138,108,240)" stroke-width="1.51"/><path d="M88,-142L87,-42L241,-111Z" fill="rgb(132,107,240)" stroke="rgb(132,107,240)" stroke-width="1.51"/><path d="M5,-160L309,-132L551,-162Z" fill="rgb(140,110,240)" stroke="rgb(140,110,240)" stroke-width="1.51"/><path d="M5,-160L88,-142L309,-132Z" fill="rgb(132,107,240)" stroke="rgb(132,107,240)" stroke-width="1.51"/><path d="M309,-132L88,-142L241,-111Z" fill="rgb(126,106,240)" stroke="rgb(126,106,240)" stroke-width="1.51"/><path d="M-140,579L-163,824L-140,724Z" fill="rgb(165,156,242)" stroke="rgb(165,156,242)" stroke-width="1.51"/><path d="M-140,724L-163,824L-51,704Z" fill="rgb(140,151,236)" stroke="rgb(140,151,236)" stroke-width="1.51"/><path d="M-163,98L-163,824L-140,579Z" fill="rgb(202,159,248)" stroke="rgb(202,159,248)" stroke-width="1.51"/><path d="M1322,-126L1176,-141L1191,-40Z" fill="rgb(169,157,243)" stroke="rgb(169,157,243)" stroke-width="1.51"/><path d="M1514,319L1387,318L1425,459Z" fill="rgb(168,141,233)" stroke="rgb(168,141,233)" stroke-width="1.51"/><path d="M1514,319L1436,247L1387,318Z" fill="rgb(159,156,230)" stroke="rgb(159,156,230)" stroke-width="1.51"/><path d="M1387,318L1436,247L1288,218Z" fill="rgb(162,163,231)" stroke="rgb(162,163,231)" stroke-width="1.51"/><path d="M1435,668L1510,556L1412,599Z" fill="rgb(158,204,237)" stroke="rgb(158,204,237)" stroke-width="1.51"/><path d="M1313,917L1443,795L1315,802Z" fill="rgb(61,179,222)" stroke="rgb(61,179,222)" stroke-width="1.51"/><path d="M-11,928L-123,972L242,963Z" fill="rgb(102,144,230)" stroke="rgb(102,144,230)" stroke-width="1.51"/><path d="M242,963L-123,972L929,961Z" fill="rgb(123,151,230)" stroke="rgb(123,151,230)" stroke-width="1.51"/><path d="M-163,824L-123,972L-11,928Z" fill="rgb(105,145,230)" stroke="rgb(105,145,230)" stroke-width="1.51"/><path d="M-134,-50L-45,129L9,-52Z" fill="rgb(141,109,240)" stroke="rgb(141,109,240)" stroke-width="1.51"/><path d="M-134,-50L-163,98L-45,129Z" fill="rgb(134,107,240)" stroke="rgb(134,107,240)" stroke-width="1.51"/><path d="M-117,188L-163,98L-122,323Z" fill="rgb(158,115,240)" stroke="rgb(158,115,240)" stroke-width="1.51"/><path d="M1540,715L1510,556L1435,668Z" fill="rgb(154,198,237)" stroke="rgb(154,198,237)" stroke-width="1.51"/><path d="M88,-142L5,-160L9,-52Z" fill="rgb(140,108,240)" stroke="rgb(140,108,240)" stroke-width="1.51"/><path d="M695,-173L5,-160L551,-162Z" fill="rgb(174,120,240)" stroke="rgb(174,120,240)" stroke-width="1.51"/><path d="M1436,247L1444,93L1288,218Z" fill="rgb(120,150,231)" stroke="rgb(120,150,231)" stroke-width="1.51"/><path d="M1271,-6L1322,-126L1191,-40Z" fill="rgb(158,155,240)" stroke="rgb(158,155,240)" stroke-width="1.51"/><path d="M1558,431L1514,319L1425,459Z" fill="rgb(173,135,234)" stroke="rgb(173,135,234)" stroke-width="1.51"/><path d="M1529,219L1444,93L1436,247Z" fill="rgb(115,149,230)" stroke="rgb(115,149,230)" stroke-width="1.51"/><path d="M1443,795L1540,715L1435,668Z" fill="rgb(110,186,229)" stroke="rgb(110,186,229)" stroke-width="1.51"/><path d="M1313,917L1451,949L1443,795Z" fill="rgb(0,175,219)" stroke="rgb(0,175,219)" stroke-width="1.51"/><path d="M929,961L1451,949L1035,943Z" fill="rgb(154,198,237)" stroke="rgb(154,198,237)" stroke-width="1.51"/><path d="M-139,-140L-134,-50L9,-52Z" fill="rgb(142,109,240)" stroke="rgb(142,109,240)" stroke-width="1.51"/><path d="M1510,556L1558,431L1425,459Z" fill="rgb(169,184,236)" stroke="rgb(169,184,236)" stroke-width="1.51"/><path d="M1514,319L1529,219L1436,247Z" fill="rgb(152,161,229)" stroke="rgb(152,161,229)" stroke-width="1.51"/><path d="M1540,715L1558,431L1510,556Z" fill="rgb(162,209,237)" stroke="rgb(162,209,237)" stroke-width="1.51"/><path d="M1543,784L1540,715L1443,795Z" fill="rgb(74,181,223)" stroke="rgb(74,181,223)" stroke-width="1.51"/><path d="M1176,-141L1401,-154L1045,-162Z" fill="rgb(176,158,245)" stroke="rgb(176,158,245)" stroke-width="1.51"/><path d="M1434,-52L1322,-126L1271,-6Z" fill="rgb(129,149,234)" stroke="rgb(129,149,234)" stroke-width="1.51"/><path d="M1444,93L1434,-52L1297,91Z" fill="rgb(101,144,230)" stroke="rgb(101,144,230)" stroke-width="1.51"/><path d="M1558,431L1529,219L1514,319Z" fill="rgb(163,150,231)" stroke="rgb(163,150,231)" stroke-width="1.51"/><path d="M1451,949L1543,784L1443,795Z" fill="rgb(0,175,219)" stroke="rgb(0,175,219)" stroke-width="1.51"/><path d="M1540,715L1543,784L1558,431Z" fill="rgb(154,199,237)" stroke="rgb(154,199,237)" stroke-width="1.51"/><path d="M1512,-25L1434,-52L1444,93Z" fill="rgb(105,145,230)" stroke="rgb(105,145,230)" stroke-width="1.51"/><path d="M1529,219L1540,124L1444,93Z" fill="rgb(90,142,230)" stroke="rgb(90,142,230)" stroke-width="1.51"/><path d="M1558,431L1540,124L1529,219Z" fill="rgb(151,161,229)" stroke="rgb(151,161,229)" stroke-width="1.51"/><path d="M5,-160L-139,-140L9,-52Z" fill="rgb(142,109,240)" stroke="rgb(142,109,240)" stroke-width="1.51"/><path d="M-134,-50L-139,-140L-163,98Z" fill="rgb(142,109,240)" stroke="rgb(142,109,240)" stroke-width="1.51"/><path d="M1562,-152L1401,-154L1434,-52Z" fill="rgb(105,145,230)" stroke="rgb(105,145,230)" stroke-width="1.51"/><path d="M1434,-52L1401,-154L1322,-126Z" fill="rgb(111,146,231)" stroke="rgb(111,146,231)" stroke-width="1.51"/><path d="M1322,-126L1401,-154L1176,-141Z" fill="rgb(145,152,237)" stroke="rgb(145,152,237)" stroke-width="1.51"/><path d="M1045,-162L1401,-154L937,-169Z" fill="rgb(192,164,248)" stroke="rgb(192,164,248)" stroke-width="1.51"/><path d="M1451,949L1558,953L1543,784Z" fill="rgb(0,175,219)" stroke="rgb(0,175,219)" stroke-width="1.51"/><path d="M1543,784L1558,953L1558,431Z" fill="rgb(113,187,229)" stroke="rgb(113,187,229)" stroke-width="1.51"/><path d="M929,961L1558,953L1451,949Z" fill="rgb(89,183,225)" stroke="rgb(89,183,225)" stroke-width="1.51"/><path d="M1540,124L1512,-25L1444,93Z" fill="rgb(95,143,230)" stroke="rgb(95,143,230)" stroke-width="1.51"/><path d="M1540,124L1562,-152L1512,-25Z" fill="rgb(105,145,230)" stroke="rgb(105,145,230)" stroke-width="1.51"/><path d="M1512,-25L1562,-152L1434,-52Z" fill="rgb(105,145,230)" stroke="rgb(105,145,230)" stroke-width="1.51"/><path d="M1401,-154L1562,-152L937,-169Z" fill="rgb(144,152,237)" stroke="rgb(144,152,237)" stroke-width="1.51"/><path d="M1558,431L1562,-152L1540,124Z" fill="rgb(82,140,230)" stroke="rgb(82,140,230)" stroke-width="1.51"/><path d="M1558,953L1562,-152L1558,431Z" fill="rgb(173,140,234)" stroke="rgb(173,140,234)" stroke-width="1.51"/></svg>